<svg width="1728" height="948" viewBox="0 0 1728 948" fill="none" xmlns="http://www.w3.org/2000/svg">
<g clip-path="url(#clip0_33_455)">
<rect width="1728" height="948" fill="#181818"/>
<g filter="url(#filter0_d_33_455)">
<rect x="33" width="12" height="948" fill="url(#paint0_linear_33_455)"/>
<rect x="99" width="12" height="948" fill="url(#paint1_linear_33_455)"/>
<rect x="165" width="12" height="948" fill="url(#paint2_linear_33_455)"/>
<rect x="231" width="12" height="948" fill="url(#paint3_linear_33_455)"/>
<rect x="297" width="12" height="948" fill="url(#paint4_linear_33_455)"/>
<rect x="363" width="12" height="948" fill="url(#paint5_linear_33_455)"/>
<rect x="429" width="12" height="948" fill="url(#paint6_linear_33_455)"/>
<rect x="495" width="12" height="948" fill="url(#paint7_linear_33_455)"/>
<rect x="561" width="12" height="948" fill="url(#paint8_linear_33_455)"/>
<rect x="627" width="12" height="948" fill="url(#paint9_linear_33_455)"/>
<rect x="693" width="12" height="948" fill="url(#paint10_linear_33_455)"/>
<rect x="759" width="12" height="948" fill="url(#paint11_linear_33_455)"/>
<rect x="825" width="12" height="948" fill="url(#paint12_linear_33_455)"/>
<rect x="891" width="12" height="948" fill="url(#paint13_linear_33_455)"/>
<rect x="957" width="12" height="948" fill="url(#paint14_linear_33_455)"/>
<rect x="1023" width="12" height="948" fill="url(#paint15_linear_33_455)"/>
<rect x="1089" width="12" height="948" fill="url(#paint16_linear_33_455)"/>
<rect x="1155" width="12" height="948" fill="url(#paint17_linear_33_455)"/>
<rect x="1221" width="12" height="948" fill="url(#paint18_linear_33_455)"/>
<rect x="1287" width="12" height="948" fill="url(#paint19_linear_33_455)"/>
<rect x="1353" width="12" height="948" fill="url(#paint20_linear_33_455)"/>
<rect x="1419" width="12" height="948" fill="url(#paint21_linear_33_455)"/>
<rect x="1485" width="12" height="948" fill="url(#paint22_linear_33_455)"/>
<rect x="1551" width="12" height="948" fill="url(#paint23_linear_33_455)"/>
<rect x="1617" width="12" height="948" fill="url(#paint24_linear_33_455)"/>
<rect x="1683" width="12" height="948" fill="url(#paint25_linear_33_455)"/>
</g>
<g filter="url(#filter1_f_33_455)">
<circle cx="864" cy="1330" r="670" fill="#181818"/>
</g>
<path d="M750.82 455V453.464L777.7 421.784C781.732 417.08 784.42 412.856 784.42 408.728C784.42 402.968 780.772 399.032 774.531 399.032C768.292 399.032 764.74 402.968 764.74 409.88H750.82C750.82 396.056 760.9 386.552 774.724 386.552C788.644 386.552 798.34 396.056 798.34 407.96C798.34 413.336 796.9 417.752 792.484 423.416L782.02 437.048C780.388 439.16 778.468 441.464 776.068 443.192H798.724V455H750.82ZM831.535 456.248C816.079 456.248 805.423 444.536 805.423 430.136V412.856C805.423 398.456 816.079 386.744 831.535 386.744C846.991 386.744 857.647 398.456 857.647 412.856V430.136C857.647 444.536 846.991 456.248 831.535 456.248ZM819.343 428.6C819.343 437.336 823.279 443.768 831.535 443.768C839.791 443.768 843.727 437.336 843.727 428.6V414.488C843.727 404.792 839.791 399.224 831.535 399.224C823.279 399.224 819.343 404.792 819.343 414.488V428.6ZM862.663 455V453.464L889.543 421.784C893.575 417.08 896.263 412.856 896.263 408.728C896.263 402.968 892.615 399.032 886.375 399.032C880.135 399.032 876.583 402.968 876.583 409.88H862.663C862.663 396.056 872.743 386.552 886.567 386.552C900.487 386.552 910.183 396.056 910.183 407.96C910.183 413.336 908.743 417.752 904.327 423.416L893.863 437.048C892.231 439.16 890.311 441.464 887.911 443.192H910.567V455H862.663ZM938.578 456.248C924.178 456.248 914.866 448.76 914.866 434.936H928.306C928.306 441.752 932.146 444.632 938.578 444.632C944.914 444.632 947.986 440.792 947.986 436.28C947.986 429.56 943.378 425.912 936.754 426.008L929.938 426.104V415.064H936.754C943.282 415.064 947.506 412.184 947.506 406.52C947.506 401.912 944.722 398.168 938.578 398.168C932.53 398.168 928.69 401.048 928.69 407H915.73C915.73 394.136 924.754 386.552 938.578 386.552C952.498 386.552 960.466 395.096 960.466 405.944C960.466 412.184 958.162 417.176 952.498 420.056C958.066 423.032 961.33 428.6 961.33 436.952C961.33 447.8 953.074 456.248 938.578 456.248ZM595.734 570V514.896H576.534V502.8H628.374V514.896H609.174V570H595.734ZM633.684 570V520.08H646.644V570H633.684ZM632.34 508.272C632.34 504.144 635.7 500.688 640.116 500.688C644.628 500.688 647.892 504.144 647.892 508.272C647.892 512.592 644.628 515.952 640.116 515.952C635.7 515.952 632.34 512.496 632.34 508.272ZM654.309 570V520.08H667.077V527.376C669.669 521.808 674.661 518.928 682.341 518.928C689.349 518.928 695.301 522.288 698.565 528.336C701.925 522.288 706.725 518.928 715.461 518.928C726.213 518.928 734.469 526.896 734.469 539.472V570H721.509V542.64C721.509 534 717.381 530.256 711.525 530.256C705.477 530.256 701.349 533.04 701.349 542.64V570H688.389V542.64C688.389 534 684.069 530.256 677.637 530.256C672.165 530.256 667.269 534 667.269 542.64V570H654.309ZM765.588 571.248C750.132 571.248 739.764 559.536 739.764 545.136C739.764 530.736 750.612 518.832 765.588 518.832C780.564 518.832 790.932 530.736 790.932 545.136C790.932 546.576 790.836 548.112 790.548 549.744H753.204C754.644 555.6 759.06 559.728 765.588 559.728C771.156 559.728 775.476 556.848 777.78 553.008L787.86 560.592C783.828 566.832 775.476 571.248 765.588 571.248ZM753.204 540.048H777.876C776.436 534.48 771.732 529.968 765.396 529.968C759.252 529.968 754.644 534.096 753.204 540.048ZM842.784 571.248C822.816 571.248 807.744 555.696 807.744 536.496C807.744 517.2 822.048 501.552 842.784 501.552C853.728 501.552 861.312 504.912 867.36 512.112L857.856 520.368C853.824 516.144 848.832 514.032 842.784 514.032C829.824 514.032 821.664 524.208 821.664 536.496C821.664 548.784 829.824 558.768 843.072 558.768C849.6 558.768 854.496 556.56 858.432 552.24L868.224 560.592C863.136 566.736 854.496 571.248 842.784 571.248ZM892.686 571.248C878.958 571.248 868.014 559.632 868.014 545.232C868.014 530.832 878.958 519.024 892.686 519.024C901.326 519.024 905.838 522.576 908.526 527.952V520.08H921.39V570H908.814V561.84C906.126 567.504 901.614 571.248 892.686 571.248ZM880.974 545.136C880.974 552.72 886.542 559.536 894.798 559.536C903.342 559.536 908.814 553.008 908.814 545.232C908.814 537.456 903.342 530.736 894.798 530.736C886.542 530.736 880.974 537.36 880.974 545.136ZM929.09 589.2V520.08H941.858V528.144C944.546 522.672 949.058 519.024 957.794 519.024C971.522 519.024 982.466 530.832 982.466 545.232C982.466 559.632 971.522 571.248 957.794 571.248C949.25 571.248 944.738 567.792 942.05 562.608V589.2H929.09ZM941.666 545.232C941.666 553.008 947.138 559.536 955.682 559.536C963.938 559.536 969.506 552.72 969.506 545.136C969.506 537.36 963.938 530.736 955.682 530.736C947.138 530.736 941.666 537.456 941.666 545.232ZM1004.3 571.248C995.855 571.248 989.039 568.368 983.567 562.512L992.303 554.544C995.951 558.672 999.791 560.688 1004.02 560.688C1008.43 560.688 1010.93 558.48 1010.93 555.504C1010.93 552.912 1009.68 551.472 1001.81 549.648C988.463 546.48 986.447 540.432 986.447 534.096C986.447 525.36 993.359 518.832 1005.07 518.832C1013.14 518.832 1018.51 520.848 1023.6 527.472L1014.19 534.672C1011.79 530.832 1008.72 529.296 1005.36 529.296C1001.81 529.296 999.119 530.64 999.119 533.712C999.119 535.44 999.887 536.976 1005.84 538.512C1020.34 542.256 1023.7 547.632 1023.7 555.12C1023.7 564.336 1015.34 571.248 1004.3 571.248ZM1047.27 571.152C1036.52 571.152 1028.27 563.184 1028.27 550.608V520.08H1041.23V547.44C1041.23 556.08 1044.78 559.824 1051.21 559.824C1056.68 559.824 1061.58 556.08 1061.58 547.44V520.08H1074.54V570H1061.96V562.512C1059.56 568.272 1055.05 571.152 1047.27 571.152ZM1082.18 570V499.92H1095.14V570H1082.18ZM1126.71 571.248C1111.26 571.248 1100.89 559.536 1100.89 545.136C1100.89 530.736 1111.74 518.832 1126.71 518.832C1141.69 518.832 1152.06 530.736 1152.06 545.136C1152.06 546.576 1151.96 548.112 1151.67 549.744H1114.33C1115.77 555.6 1120.18 559.728 1126.71 559.728C1132.28 559.728 1136.6 556.848 1138.9 553.008L1148.98 560.592C1144.95 566.832 1136.6 571.248 1126.71 571.248ZM1114.33 540.048H1139C1137.56 534.48 1132.86 529.968 1126.52 529.968C1120.38 529.968 1115.77 534.096 1114.33 540.048Z" fill="white"/>
<g filter="url(#filter2_d_33_455)">
<path fill-rule="evenodd" clip-rule="evenodd" d="M622.235 321.684C602.936 321.945 583.855 325.872 566.012 333.263C547.535 340.916 530.747 352.134 516.605 366.276C502.464 380.417 491.246 397.206 483.592 415.682C475.939 434.159 472 453.963 472 473.962C472 493.961 475.939 513.764 483.592 532.241C491.246 550.718 502.464 567.506 516.605 581.648C530.747 595.79 547.535 607.007 566.012 614.661C584.489 622.314 604.292 626.253 624.291 626.253L624.291 625.856L871.859 625.856L871.859 321.132L622.235 321.132L622.235 321.684Z" fill="black"/>
<path fill-rule="evenodd" clip-rule="evenodd" d="M622.235 321.684C602.936 321.945 583.855 325.872 566.012 333.263C547.535 340.916 530.747 352.134 516.605 366.276C502.464 380.417 491.246 397.206 483.592 415.682C475.939 434.159 472 453.963 472 473.962C472 493.961 475.939 513.764 483.592 532.241C491.246 550.718 502.464 567.506 516.605 581.648C530.747 595.79 547.535 607.007 566.012 614.661C584.489 622.314 604.292 626.253 624.291 626.253L624.291 625.856L871.859 625.856L871.859 321.132L622.235 321.132L622.235 321.684Z" fill="url(#paint26_linear_33_455)"/>
<path fill-rule="evenodd" clip-rule="evenodd" d="M622.235 321.684C602.936 321.945 583.855 325.872 566.012 333.263C547.535 340.916 530.747 352.134 516.605 366.276C502.464 380.417 491.246 397.206 483.592 415.682C475.939 434.159 472 453.963 472 473.962C472 493.961 475.939 513.764 483.592 532.241C491.246 550.718 502.464 567.506 516.605 581.648C530.747 595.79 547.535 607.007 566.012 614.661C584.489 622.314 604.292 626.253 624.291 626.253L624.291 625.856L871.859 625.856L871.859 321.132L622.235 321.132L622.235 321.684Z" fill="url(#paint27_radial_33_455)"/>
<path fill-rule="evenodd" clip-rule="evenodd" d="M622.235 321.684C602.936 321.945 583.855 325.872 566.012 333.263C547.535 340.916 530.747 352.134 516.605 366.276C502.464 380.417 491.246 397.206 483.592 415.682C475.939 434.159 472 453.963 472 473.962C472 493.961 475.939 513.764 483.592 532.241C491.246 550.718 502.464 567.506 516.605 581.648C530.747 595.79 547.535 607.007 566.012 614.661C584.489 622.314 604.292 626.253 624.291 626.253L624.291 625.856L871.859 625.856L871.859 321.132L622.235 321.132L622.235 321.684Z" fill="url(#paint28_radial_33_455)"/>
</g>
<ellipse cx="871.481" cy="473.494" rx="67.2063" ry="152.362" fill="#151515"/>
<ellipse cx="871.481" cy="473.494" rx="67.2063" ry="152.362" fill="#151515"/>
<path fill-rule="evenodd" clip-rule="evenodd" d="M871.836 626.029C861.79 635.114 850.678 640.16 838.99 640.16C794.054 640.16 757.627 565.58 757.627 473.58C757.627 381.58 794.054 307 838.99 307C850.678 307 861.79 312.046 871.836 321.131L838.936 321.131H837.705V321.157C801.156 322.644 771.73 390.278 771.73 473.494C771.73 556.709 801.156 624.343 837.705 625.831V626.029H871.836Z" fill="url(#paint29_radial_33_455)"/>
<g filter="url(#filter3_d_33_455)">
<path fill-rule="evenodd" clip-rule="evenodd" d="M1189.32 333.263C1171.47 325.872 1152.39 321.945 1133.09 321.684L1133.09 321.132L883.469 321.132L883.469 321.134C883.329 321.133 883.19 321.132 883.05 321.132C845.933 321.132 815.844 389.346 815.844 473.494C815.844 557.641 845.933 625.856 883.05 625.856C883.19 625.856 883.329 625.855 883.469 625.853L883.469 625.856L1131.04 625.856L1131.04 626.253C1151.03 626.253 1170.84 622.314 1189.32 614.661C1207.79 607.007 1224.58 595.79 1238.72 581.648C1252.86 567.506 1264.08 550.718 1271.73 532.241C1279.39 513.764 1283.33 493.961 1283.33 473.962C1283.33 453.963 1279.39 434.159 1271.73 415.682C1264.08 397.206 1252.86 380.417 1238.72 366.276C1224.58 352.134 1207.79 340.916 1189.32 333.263Z" fill="black"/>
<path fill-rule="evenodd" clip-rule="evenodd" d="M1189.32 333.263C1171.47 325.872 1152.39 321.945 1133.09 321.684L1133.09 321.132L883.469 321.132L883.469 321.134C883.329 321.133 883.19 321.132 883.05 321.132C845.933 321.132 815.844 389.346 815.844 473.494C815.844 557.641 845.933 625.856 883.05 625.856C883.19 625.856 883.329 625.855 883.469 625.853L883.469 625.856L1131.04 625.856L1131.04 626.253C1151.03 626.253 1170.84 622.314 1189.32 614.661C1207.79 607.007 1224.58 595.79 1238.72 581.648C1252.86 567.506 1264.08 550.718 1271.73 532.241C1279.39 513.764 1283.33 493.961 1283.33 473.962C1283.33 453.963 1279.39 434.159 1271.73 415.682C1264.08 397.206 1252.86 380.417 1238.72 366.276C1224.58 352.134 1207.79 340.916 1189.32 333.263Z" fill="url(#paint30_linear_33_455)"/>
<path fill-rule="evenodd" clip-rule="evenodd" d="M1189.32 333.263C1171.47 325.872 1152.39 321.945 1133.09 321.684L1133.09 321.132L883.469 321.132L883.469 321.134C883.329 321.133 883.19 321.132 883.05 321.132C845.933 321.132 815.844 389.346 815.844 473.494C815.844 557.641 845.933 625.856 883.05 625.856C883.19 625.856 883.329 625.855 883.469 625.853L883.469 625.856L1131.04 625.856L1131.04 626.253C1151.03 626.253 1170.84 622.314 1189.32 614.661C1207.79 607.007 1224.58 595.79 1238.72 581.648C1252.86 567.506 1264.08 550.718 1271.73 532.241C1279.39 513.764 1283.33 493.961 1283.33 473.962C1283.33 453.963 1279.39 434.159 1271.73 415.682C1264.08 397.206 1252.86 380.417 1238.72 366.276C1224.58 352.134 1207.79 340.916 1189.32 333.263Z" fill="url(#paint31_radial_33_455)"/>
<path fill-rule="evenodd" clip-rule="evenodd" d="M1189.32 333.263C1171.47 325.872 1152.39 321.945 1133.09 321.684L1133.09 321.132L883.469 321.132L883.469 321.134C883.329 321.133 883.19 321.132 883.05 321.132C845.933 321.132 815.844 389.346 815.844 473.494C815.844 557.641 845.933 625.856 883.05 625.856C883.19 625.856 883.329 625.855 883.469 625.853L883.469 625.856L1131.04 625.856L1131.04 626.253C1151.03 626.253 1170.84 622.314 1189.32 614.661C1207.79 607.007 1224.58 595.79 1238.72 581.648C1252.86 567.506 1264.08 550.718 1271.73 532.241C1279.39 513.764 1283.33 493.961 1283.33 473.962C1283.33 453.963 1279.39 434.159 1271.73 415.682C1264.08 397.206 1252.86 380.417 1238.72 366.276C1224.58 352.134 1207.79 340.916 1189.32 333.263Z" fill="url(#paint32_radial_33_455)"/>
<path fill-rule="evenodd" clip-rule="evenodd" d="M1189.32 333.263C1171.47 325.872 1152.39 321.945 1133.09 321.684L1133.09 321.132L883.469 321.132L883.469 321.134C883.329 321.133 883.19 321.132 883.05 321.132C845.933 321.132 815.844 389.346 815.844 473.494C815.844 557.641 845.933 625.856 883.05 625.856C883.19 625.856 883.329 625.855 883.469 625.853L883.469 625.856L1131.04 625.856L1131.04 626.253C1151.03 626.253 1170.84 622.314 1189.32 614.661C1207.79 607.007 1224.58 595.79 1238.72 581.648C1252.86 567.506 1264.08 550.718 1271.73 532.241C1279.39 513.764 1283.33 493.961 1283.33 473.962C1283.33 453.963 1279.39 434.159 1271.73 415.682C1264.08 397.206 1252.86 380.417 1238.72 366.276C1224.58 352.134 1207.79 340.916 1189.32 333.263Z" fill="url(#paint33_radial_33_455)"/>
</g>
<path fill-rule="evenodd" clip-rule="evenodd" d="M967.736 626.029C957.691 635.114 946.578 640.16 934.89 640.16C889.955 640.16 853.527 565.58 853.527 473.58C853.527 381.58 889.955 307 934.89 307C946.578 307 957.691 312.046 967.736 321.131L934.844 321.131C934.841 321.131 934.839 321.131 934.836 321.131C934.834 321.131 934.831 321.131 934.829 321.131H933.606V321.156C897.057 322.644 867.63 390.278 867.63 473.494C867.63 556.709 897.057 624.343 933.606 625.831V626.029H967.736Z" fill="url(#paint34_radial_33_455)"/>
</g>
<defs>
<filter id="filter0_d_33_455" x="-367" y="0" width="2462" height="956" filterUnits="userSpaceOnUse" color-interpolation-filters="sRGB">
<feFlood flood-opacity="0" result="BackgroundImageFix"/>
<feColorMatrix in="SourceAlpha" type="matrix" values="0 0 0 0 0 0 0 0 0 0 0 0 0 0 0 0 0 0 127 0" result="hardAlpha"/>
<feOffset dy="4"/>
<feGaussianBlur stdDeviation="2"/>
<feComposite in2="hardAlpha" operator="out"/>
<feColorMatrix type="matrix" values="0 0 0 0 0 0 0 0 0 0 0 0 0 0 0 0 0 0 0.25 0"/>
<feBlend mode="normal" in2="BackgroundImageFix" result="effect1_dropShadow_33_455"/>
<feBlend mode="normal" in="SourceGraphic" in2="effect1_dropShadow_33_455" result="shape"/>
</filter>
<filter id="filter1_f_33_455" x="-206" y="260" width="2140" height="2140" filterUnits="userSpaceOnUse" color-interpolation-filters="sRGB">
<feFlood flood-opacity="0" result="BackgroundImageFix"/>
<feBlend mode="normal" in="SourceGraphic" in2="BackgroundImageFix" result="shape"/>
<feGaussianBlur stdDeviation="200" result="effect1_foregroundBlur_33_455"/>
</filter>
<filter id="filter2_d_33_455" x="272" y="125.132" width="799.858" height="705.122" filterUnits="userSpaceOnUse" color-interpolation-filters="sRGB">
<feFlood flood-opacity="0" result="BackgroundImageFix"/>
<feColorMatrix in="SourceAlpha" type="matrix" values="0 0 0 0 0 0 0 0 0 0 0 0 0 0 0 0 0 0 127 0" result="hardAlpha"/>
<feOffset dy="4"/>
<feGaussianBlur stdDeviation="100"/>
<feComposite in2="hardAlpha" operator="out"/>
<feColorMatrix type="matrix" values="0 0 0 0 0 0 0 0 0 0 0 0 0 0 0 0 0 0 1 0"/>
<feBlend mode="normal" in2="BackgroundImageFix" result="effect1_dropShadow_33_455"/>
<feBlend mode="normal" in="SourceGraphic" in2="effect1_dropShadow_33_455" result="shape"/>
</filter>
<filter id="filter3_d_33_455" x="615.844" y="125.132" width="867.483" height="705.122" filterUnits="userSpaceOnUse" color-interpolation-filters="sRGB">
<feFlood flood-opacity="0" result="BackgroundImageFix"/>
<feColorMatrix in="SourceAlpha" type="matrix" values="0 0 0 0 0 0 0 0 0 0 0 0 0 0 0 0 0 0 127 0" result="hardAlpha"/>
<feOffset dy="4"/>
<feGaussianBlur stdDeviation="100"/>
<feComposite in2="hardAlpha" operator="out"/>
<feColorMatrix type="matrix" values="0 0 0 0 0 0 0 0 0 0 0 0 0 0 0 0 0 0 1 0"/>
<feBlend mode="normal" in2="BackgroundImageFix" result="effect1_dropShadow_33_455"/>
<feBlend mode="normal" in="SourceGraphic" in2="effect1_dropShadow_33_455" result="shape"/>
</filter>
<linearGradient id="paint0_linear_33_455" x1="39" y1="0" x2="39" y2="948" gradientUnits="userSpaceOnUse">
<stop stop-color="#203FE3" stop-opacity="0"/>
<stop offset="1" stop-color="#EEECD1"/>
</linearGradient>
<linearGradient id="paint1_linear_33_455" x1="105" y1="0" x2="105" y2="948" gradientUnits="userSpaceOnUse">
<stop stop-color="#203FE3" stop-opacity="0"/>
<stop offset="1" stop-color="#EEECD1"/>
</linearGradient>
<linearGradient id="paint2_linear_33_455" x1="171" y1="0" x2="171" y2="948" gradientUnits="userSpaceOnUse">
<stop stop-color="#203FE3" stop-opacity="0"/>
<stop offset="1" stop-color="#EEECD1"/>
</linearGradient>
<linearGradient id="paint3_linear_33_455" x1="237" y1="0" x2="237" y2="948" gradientUnits="userSpaceOnUse">
<stop stop-color="#203FE3" stop-opacity="0"/>
<stop offset="1" stop-color="#EEECD1"/>
</linearGradient>
<linearGradient id="paint4_linear_33_455" x1="303" y1="0" x2="303" y2="948" gradientUnits="userSpaceOnUse">
<stop stop-color="#203FE3" stop-opacity="0"/>
<stop offset="1" stop-color="#EEECD1"/>
</linearGradient>
<linearGradient id="paint5_linear_33_455" x1="369" y1="0" x2="369" y2="948" gradientUnits="userSpaceOnUse">
<stop stop-color="#203FE3" stop-opacity="0"/>
<stop offset="1" stop-color="#EEECD1"/>
</linearGradient>
<linearGradient id="paint6_linear_33_455" x1="435" y1="0" x2="435" y2="948" gradientUnits="userSpaceOnUse">
<stop stop-color="#203FE3" stop-opacity="0"/>
<stop offset="1" stop-color="#EEECD1"/>
</linearGradient>
<linearGradient id="paint7_linear_33_455" x1="501" y1="0" x2="501" y2="948" gradientUnits="userSpaceOnUse">
<stop stop-color="#203FE3" stop-opacity="0"/>
<stop offset="1" stop-color="#EEECD1"/>
</linearGradient>
<linearGradient id="paint8_linear_33_455" x1="567" y1="0" x2="567" y2="948" gradientUnits="userSpaceOnUse">
<stop stop-color="#203FE3" stop-opacity="0"/>
<stop offset="1" stop-color="#EEECD1"/>
</linearGradient>
<linearGradient id="paint9_linear_33_455" x1="633" y1="0" x2="633" y2="948" gradientUnits="userSpaceOnUse">
<stop stop-color="#203FE3" stop-opacity="0"/>
<stop offset="1" stop-color="#EEECD1"/>
</linearGradient>
<linearGradient id="paint10_linear_33_455" x1="699" y1="0" x2="699" y2="948" gradientUnits="userSpaceOnUse">
<stop stop-color="#203FE3" stop-opacity="0"/>
<stop offset="1" stop-color="#EEECD1"/>
</linearGradient>
<linearGradient id="paint11_linear_33_455" x1="765" y1="0" x2="765" y2="948" gradientUnits="userSpaceOnUse">
<stop stop-color="#203FE3" stop-opacity="0"/>
<stop offset="1" stop-color="#EEECD1"/>
</linearGradient>
<linearGradient id="paint12_linear_33_455" x1="831" y1="0" x2="831" y2="948" gradientUnits="userSpaceOnUse">
<stop stop-color="#203FE3" stop-opacity="0"/>
<stop offset="1" stop-color="#EEECD1"/>
</linearGradient>
<linearGradient id="paint13_linear_33_455" x1="897" y1="0" x2="897" y2="948" gradientUnits="userSpaceOnUse">
<stop stop-color="#203FE3" stop-opacity="0"/>
<stop offset="1" stop-color="#EEECD1"/>
</linearGradient>
<linearGradient id="paint14_linear_33_455" x1="963" y1="0" x2="963" y2="948" gradientUnits="userSpaceOnUse">
<stop stop-color="#203FE3" stop-opacity="0"/>
<stop offset="1" stop-color="#EEECD1"/>
</linearGradient>
<linearGradient id="paint15_linear_33_455" x1="1029" y1="0" x2="1029" y2="948" gradientUnits="userSpaceOnUse">
<stop stop-color="#203FE3" stop-opacity="0"/>
<stop offset="1" stop-color="#EEECD1"/>
</linearGradient>
<linearGradient id="paint16_linear_33_455" x1="1095" y1="0" x2="1095" y2="948" gradientUnits="userSpaceOnUse">
<stop stop-color="#203FE3" stop-opacity="0"/>
<stop offset="1" stop-color="#EEECD1"/>
</linearGradient>
<linearGradient id="paint17_linear_33_455" x1="1161" y1="0" x2="1161" y2="948" gradientUnits="userSpaceOnUse">
<stop stop-color="#203FE3" stop-opacity="0"/>
<stop offset="1" stop-color="#EEECD1"/>
</linearGradient>
<linearGradient id="paint18_linear_33_455" x1="1227" y1="0" x2="1227" y2="948" gradientUnits="userSpaceOnUse">
<stop stop-color="#203FE3" stop-opacity="0"/>
<stop offset="1" stop-color="#EEECD1"/>
</linearGradient>
<linearGradient id="paint19_linear_33_455" x1="1293" y1="0" x2="1293" y2="948" gradientUnits="userSpaceOnUse">
<stop stop-color="#203FE3" stop-opacity="0"/>
<stop offset="1" stop-color="#EEECD1"/>
</linearGradient>
<linearGradient id="paint20_linear_33_455" x1="1359" y1="0" x2="1359" y2="948" gradientUnits="userSpaceOnUse">
<stop stop-color="#203FE3" stop-opacity="0"/>
<stop offset="1" stop-color="#EEECD1"/>
</linearGradient>
<linearGradient id="paint21_linear_33_455" x1="1425" y1="0" x2="1425" y2="948" gradientUnits="userSpaceOnUse">
<stop stop-color="#203FE3" stop-opacity="0"/>
<stop offset="1" stop-color="#EEECD1"/>
</linearGradient>
<linearGradient id="paint22_linear_33_455" x1="1491" y1="0" x2="1491" y2="948" gradientUnits="userSpaceOnUse">
<stop stop-color="#203FE3" stop-opacity="0"/>
<stop offset="1" stop-color="#EEECD1"/>
</linearGradient>
<linearGradient id="paint23_linear_33_455" x1="1557" y1="0" x2="1557" y2="948" gradientUnits="userSpaceOnUse">
<stop stop-color="#203FE3" stop-opacity="0"/>
<stop offset="1" stop-color="#EEECD1"/>
</linearGradient>
<linearGradient id="paint24_linear_33_455" x1="1623" y1="0" x2="1623" y2="948" gradientUnits="userSpaceOnUse">
<stop stop-color="#203FE3" stop-opacity="0"/>
<stop offset="1" stop-color="#EEECD1"/>
</linearGradient>
<linearGradient id="paint25_linear_33_455" x1="1689" y1="0" x2="1689" y2="948" gradientUnits="userSpaceOnUse">
<stop stop-color="#203FE3" stop-opacity="0"/>
<stop offset="1" stop-color="#EEECD1"/>
</linearGradient>
<linearGradient id="paint26_linear_33_455" x1="870.08" y1="632.377" x2="870.08" y2="321.67" gradientUnits="userSpaceOnUse">
<stop stop-color="#D9D9D9"/>
<stop offset="0.0001" stop-color="#D9D9D9"/>
<stop offset="0.2" stop-color="#748998" stop-opacity="0.34"/>
<stop offset="0.4" stop-color="#D9D9D9" stop-opacity="0"/>
<stop offset="0.6" stop-color="#D9D9D9"/>
<stop offset="0.8" stop-color="#748998" stop-opacity="0.25"/>
<stop offset="1" stop-color="#222222"/>
</linearGradient>
<radialGradient id="paint27_radial_33_455" cx="0" cy="0" r="1" gradientUnits="userSpaceOnUse" gradientTransform="translate(490.784 401.278) rotate(32.7954) scale(215.019 206.232)">
<stop offset="0.116569" stop-color="white"/>
<stop offset="1" stop-opacity="0"/>
</radialGradient>
<radialGradient id="paint28_radial_33_455" cx="0" cy="0" r="1" gradientUnits="userSpaceOnUse" gradientTransform="translate(812 393.5) rotate(169.729) scale(151.427 256.238)">
<stop offset="0.116569" stop-color="white"/>
<stop offset="1" stop-opacity="0"/>
</radialGradient>
<radialGradient id="paint29_radial_33_455" cx="0" cy="0" r="1" gradientUnits="userSpaceOnUse" gradientTransform="translate(795.525 461.804) rotate(83.8537) scale(179.387 61.4949)">
<stop stop-color="#151515"/>
<stop offset="1" stop-color="#151515" stop-opacity="0"/>
</radialGradient>
<linearGradient id="paint30_linear_33_455" x1="817.923" y1="632.377" x2="817.923" y2="321.67" gradientUnits="userSpaceOnUse">
<stop stop-color="#D9D9D9"/>
<stop offset="0.0001" stop-color="#D9D9D9"/>
<stop offset="0.2" stop-color="#748998" stop-opacity="0.34"/>
<stop offset="0.4" stop-color="#D9D9D9" stop-opacity="0"/>
<stop offset="0.6" stop-color="#D9D9D9"/>
<stop offset="0.8" stop-color="#748998" stop-opacity="0.25"/>
<stop offset="1" stop-color="#222222"/>
</linearGradient>
<radialGradient id="paint31_radial_33_455" cx="0" cy="0" r="1" gradientUnits="userSpaceOnUse" gradientTransform="translate(773.5 308.5) rotate(39.6266) scale(358.542 319.284)">
<stop offset="0.116569" stop-color="white"/>
<stop offset="1" stop-opacity="0"/>
</radialGradient>
<radialGradient id="paint32_radial_33_455" cx="0" cy="0" r="1" gradientUnits="userSpaceOnUse" gradientTransform="translate(1206.39 389.005) rotate(141.749) scale(286.01 254.693)">
<stop stop-color="white"/>
<stop offset="1" stop-opacity="0"/>
</radialGradient>
<radialGradient id="paint33_radial_33_455" cx="0" cy="0" r="1" gradientUnits="userSpaceOnUse" gradientTransform="translate(1213.88 603.547) rotate(-138.608) scale(218.905 194.936)">
<stop/>
<stop offset="1" stop-opacity="0"/>
</radialGradient>
<radialGradient id="paint34_radial_33_455" cx="0" cy="0" r="1" gradientUnits="userSpaceOnUse" gradientTransform="translate(910.632 473.58) rotate(90) scale(166.58 57.1045)">
<stop stop-color="#151515"/>
<stop offset="1" stop-color="#151515" stop-opacity="0"/>
</radialGradient>
<clipPath id="clip0_33_455">
<rect width="1728" height="948" fill="white"/>
</clipPath>
</defs>
</svg>
